<mxfile host="app.diagrams.net" modified="2022-01-06T12:37:45.727Z" agent="5.0 (X11; Linux x86_64) AppleWebKit/537.36 (KHTML, like Gecko) Chrome/97.0.4692.71 Safari/537.36" etag="WoR1DJ6o-c_gwB8iBGTQ" version="16.1.4" type="github" pages="5">
  <diagram name="ConexionMotor" id="929967ad-93f9-6ef4-fab6-5d389245f69c">
    <mxGraphModel dx="1422" dy="795" grid="1" gridSize="10" guides="1" tooltips="1" connect="1" arrows="1" fold="1" page="1" pageScale="1.5" pageWidth="1100" pageHeight="850" background="none" math="0" shadow="0">
      <root>
        <mxCell id="0" style=";html=1;" />
        <mxCell id="1" style=";html=1;" parent="0" />
        <mxCell id="Ed7nsnH9rYDAnsbSHyD--5" style="edgeStyle=none;rounded=0;orthogonalLoop=1;jettySize=auto;html=1;exitX=0;exitY=0.5;exitDx=0;exitDy=0;exitPerimeter=0;endArrow=none;endFill=0;" parent="1" source="Ed7nsnH9rYDAnsbSHyD--3" target="Ed7nsnH9rYDAnsbSHyD--4" edge="1">
          <mxGeometry relative="1" as="geometry" />
        </mxCell>
        <mxCell id="Ed7nsnH9rYDAnsbSHyD--10" value="" style="group" parent="1" vertex="1" connectable="0">
          <mxGeometry x="821.25" y="440" width="97.5" height="97" as="geometry" />
        </mxCell>
        <mxCell id="Ed7nsnH9rYDAnsbSHyD--4" value="" style="rounded=1;whiteSpace=wrap;html=1;strokeWidth=2;fillWeight=4;hachureGap=8;hachureAngle=45;fillColor=#1ba1e2;sketch=1;" parent="Ed7nsnH9rYDAnsbSHyD--10" vertex="1">
          <mxGeometry y="37" width="97.5" height="60" as="geometry" />
        </mxCell>
        <mxCell id="Ed7nsnH9rYDAnsbSHyD--9" value="&lt;font size=&quot;1&quot;&gt;&lt;b style=&quot;font-size: 18px&quot;&gt;Arduino&lt;/b&gt;&lt;/font&gt;" style="text;html=1;resizable=0;autosize=1;align=center;verticalAlign=middle;points=[];fillColor=none;strokeColor=none;rounded=0;" parent="Ed7nsnH9rYDAnsbSHyD--10" vertex="1">
          <mxGeometry x="8.75" width="80" height="20" as="geometry" />
        </mxCell>
        <mxCell id="Ed7nsnH9rYDAnsbSHyD--12" value="" style="group" parent="1" vertex="1" connectable="0">
          <mxGeometry x="970" y="445" width="350" height="92" as="geometry" />
        </mxCell>
        <mxCell id="Ed7nsnH9rYDAnsbSHyD--1" value="M" style="verticalLabelPosition=middle;shadow=0;dashed=0;align=center;html=1;verticalAlign=middle;strokeWidth=1;shape=ellipse;aspect=fixed;fontSize=35;" parent="Ed7nsnH9rYDAnsbSHyD--12" vertex="1">
          <mxGeometry x="290" y="32" width="60" height="60" as="geometry" />
        </mxCell>
        <mxCell id="Ed7nsnH9rYDAnsbSHyD--7" style="rounded=0;orthogonalLoop=1;jettySize=auto;html=1;exitX=1;exitY=0;exitDx=0;exitDy=0;exitPerimeter=0;entryX=0;entryY=0.5;entryDx=0;entryDy=0;endArrow=none;endFill=0;" parent="Ed7nsnH9rYDAnsbSHyD--12" source="Ed7nsnH9rYDAnsbSHyD--2" target="Ed7nsnH9rYDAnsbSHyD--1" edge="1">
          <mxGeometry relative="1" as="geometry" />
        </mxCell>
        <mxCell id="Ed7nsnH9rYDAnsbSHyD--8" style="edgeStyle=none;rounded=0;orthogonalLoop=1;jettySize=auto;html=1;exitX=1;exitY=1;exitDx=0;exitDy=0;exitPerimeter=0;endArrow=none;endFill=0;entryX=0;entryY=0.5;entryDx=0;entryDy=0;" parent="Ed7nsnH9rYDAnsbSHyD--12" source="Ed7nsnH9rYDAnsbSHyD--2" target="Ed7nsnH9rYDAnsbSHyD--1" edge="1">
          <mxGeometry relative="1" as="geometry">
            <mxPoint x="320" y="95" as="targetPoint" />
          </mxGeometry>
        </mxCell>
        <mxCell id="Ed7nsnH9rYDAnsbSHyD--2" value="" style="pointerEvents=1;verticalLabelPosition=bottom;shadow=0;dashed=0;align=center;html=1;verticalAlign=top;shape=mxgraph.electrical.electro-mechanical.two_way_contact;" parent="Ed7nsnH9rYDAnsbSHyD--12" vertex="1">
          <mxGeometry x="80" y="47" width="160" height="30" as="geometry" />
        </mxCell>
        <mxCell id="Ed7nsnH9rYDAnsbSHyD--6" style="edgeStyle=none;rounded=0;orthogonalLoop=1;jettySize=auto;html=1;exitX=1;exitY=0.5;exitDx=0;exitDy=0;exitPerimeter=0;entryX=0;entryY=0.5;entryDx=0;entryDy=0;entryPerimeter=0;endArrow=none;endFill=0;" parent="Ed7nsnH9rYDAnsbSHyD--12" source="Ed7nsnH9rYDAnsbSHyD--3" target="Ed7nsnH9rYDAnsbSHyD--2" edge="1">
          <mxGeometry relative="1" as="geometry" />
        </mxCell>
        <mxCell id="Ed7nsnH9rYDAnsbSHyD--3" value="" style="pointerEvents=1;verticalLabelPosition=bottom;shadow=0;dashed=0;align=center;html=1;verticalAlign=top;shape=mxgraph.electrical.electro-mechanical.relay_contacts;" parent="Ed7nsnH9rYDAnsbSHyD--12" vertex="1">
          <mxGeometry y="50" width="60" height="24" as="geometry" />
        </mxCell>
        <mxCell id="Ed7nsnH9rYDAnsbSHyD--11" value="Interruptor Open/Close" style="text;html=1;resizable=0;autosize=1;align=center;verticalAlign=middle;points=[];fillColor=none;strokeColor=none;rounded=0;fontSize=18;" parent="Ed7nsnH9rYDAnsbSHyD--12" vertex="1">
          <mxGeometry x="40" width="200" height="30" as="geometry" />
        </mxCell>
        <mxCell id="Ed7nsnH9rYDAnsbSHyD--19" style="edgeStyle=orthogonalEdgeStyle;rounded=0;orthogonalLoop=1;jettySize=auto;html=1;exitX=0.96;exitY=0.7;exitDx=0;exitDy=0;exitPerimeter=0;fontSize=18;endArrow=none;endFill=0;entryX=0;entryY=0.5;entryDx=0;entryDy=0;" parent="1" source="Ed7nsnH9rYDAnsbSHyD--14" target="Ed7nsnH9rYDAnsbSHyD--4" edge="1">
          <mxGeometry relative="1" as="geometry">
            <mxPoint x="790" y="510" as="targetPoint" />
          </mxGeometry>
        </mxCell>
        <mxCell id="Ed7nsnH9rYDAnsbSHyD--14" value="LAN" style="ellipse;shape=cloud;whiteSpace=wrap;html=1;fontSize=18;" parent="1" vertex="1">
          <mxGeometry x="630" y="310" width="120" height="80" as="geometry" />
        </mxCell>
      </root>
    </mxGraphModel>
  </diagram>
  <diagram id="3fX0ocp2GPfWwHJixSrR" name="Data">
    <mxGraphModel dx="1422" dy="1645" grid="1" gridSize="10" guides="1" tooltips="1" connect="1" arrows="1" fold="1" page="1" pageScale="1" pageWidth="1100" pageHeight="850" math="0" shadow="0">
      <root>
        <mxCell id="2H_ZKY58X9aCm0sqUemA-0" />
        <mxCell id="2H_ZKY58X9aCm0sqUemA-1" parent="2H_ZKY58X9aCm0sqUemA-0" />
        <mxCell id="iYJabnQW1kh0cn7j27ZC-0" value="Grupos" style="shape=table;startSize=30;container=1;collapsible=1;childLayout=tableLayout;fixedRows=1;rowLines=0;fontStyle=1;align=center;resizeLast=1;" parent="2H_ZKY58X9aCm0sqUemA-1" vertex="1">
          <mxGeometry x="150" y="-809" width="250" height="190" as="geometry" />
        </mxCell>
        <mxCell id="iYJabnQW1kh0cn7j27ZC-1" value="" style="shape=partialRectangle;collapsible=0;dropTarget=0;pointerEvents=0;fillColor=none;top=0;left=0;bottom=1;right=0;points=[[0,0.5],[1,0.5]];portConstraint=eastwest;" parent="iYJabnQW1kh0cn7j27ZC-0" vertex="1">
          <mxGeometry y="30" width="250" height="30" as="geometry" />
        </mxCell>
        <mxCell id="iYJabnQW1kh0cn7j27ZC-2" value="PK" style="shape=partialRectangle;connectable=0;fillColor=none;top=0;left=0;bottom=0;right=0;fontStyle=1;overflow=hidden;" parent="iYJabnQW1kh0cn7j27ZC-1" vertex="1">
          <mxGeometry width="30" height="30" as="geometry">
            <mxRectangle width="30" height="30" as="alternateBounds" />
          </mxGeometry>
        </mxCell>
        <mxCell id="iYJabnQW1kh0cn7j27ZC-3" value="groupID:string" style="shape=partialRectangle;connectable=0;fillColor=none;top=0;left=0;bottom=0;right=0;align=left;spacingLeft=6;fontStyle=5;overflow=hidden;" parent="iYJabnQW1kh0cn7j27ZC-1" vertex="1">
          <mxGeometry x="30" width="220" height="30" as="geometry">
            <mxRectangle width="220" height="30" as="alternateBounds" />
          </mxGeometry>
        </mxCell>
        <mxCell id="iYJabnQW1kh0cn7j27ZC-4" value="" style="shape=partialRectangle;collapsible=0;dropTarget=0;pointerEvents=0;fillColor=none;top=0;left=0;bottom=0;right=0;points=[[0,0.5],[1,0.5]];portConstraint=eastwest;" parent="iYJabnQW1kh0cn7j27ZC-0" vertex="1">
          <mxGeometry y="60" width="250" height="30" as="geometry" />
        </mxCell>
        <mxCell id="iYJabnQW1kh0cn7j27ZC-5" value="" style="shape=partialRectangle;connectable=0;fillColor=none;top=0;left=0;bottom=0;right=0;editable=1;overflow=hidden;" parent="iYJabnQW1kh0cn7j27ZC-4" vertex="1">
          <mxGeometry width="30" height="30" as="geometry">
            <mxRectangle width="30" height="30" as="alternateBounds" />
          </mxGeometry>
        </mxCell>
        <mxCell id="iYJabnQW1kh0cn7j27ZC-6" value="" style="shape=partialRectangle;connectable=0;fillColor=none;top=0;left=0;bottom=0;right=0;align=left;spacingLeft=6;overflow=hidden;" parent="iYJabnQW1kh0cn7j27ZC-4" vertex="1">
          <mxGeometry x="30" width="220" height="30" as="geometry">
            <mxRectangle width="220" height="30" as="alternateBounds" />
          </mxGeometry>
        </mxCell>
        <mxCell id="iYJabnQW1kh0cn7j27ZC-7" value="" style="shape=partialRectangle;collapsible=0;dropTarget=0;pointerEvents=0;fillColor=none;top=0;left=0;bottom=0;right=0;points=[[0,0.5],[1,0.5]];portConstraint=eastwest;" parent="iYJabnQW1kh0cn7j27ZC-0" vertex="1">
          <mxGeometry y="90" width="250" height="30" as="geometry" />
        </mxCell>
        <mxCell id="iYJabnQW1kh0cn7j27ZC-8" value="" style="shape=partialRectangle;connectable=0;fillColor=none;top=0;left=0;bottom=0;right=0;editable=1;overflow=hidden;" parent="iYJabnQW1kh0cn7j27ZC-7" vertex="1">
          <mxGeometry width="30" height="30" as="geometry">
            <mxRectangle width="30" height="30" as="alternateBounds" />
          </mxGeometry>
        </mxCell>
        <mxCell id="iYJabnQW1kh0cn7j27ZC-9" value="groupName:string" style="shape=partialRectangle;connectable=0;fillColor=none;top=0;left=0;bottom=0;right=0;align=left;spacingLeft=6;overflow=hidden;" parent="iYJabnQW1kh0cn7j27ZC-7" vertex="1">
          <mxGeometry x="30" width="220" height="30" as="geometry">
            <mxRectangle width="220" height="30" as="alternateBounds" />
          </mxGeometry>
        </mxCell>
        <mxCell id="iYJabnQW1kh0cn7j27ZC-10" value="" style="shape=partialRectangle;collapsible=0;dropTarget=0;pointerEvents=0;fillColor=none;top=0;left=0;bottom=0;right=0;points=[[0,0.5],[1,0.5]];portConstraint=eastwest;" parent="iYJabnQW1kh0cn7j27ZC-0" vertex="1">
          <mxGeometry y="120" width="250" height="30" as="geometry" />
        </mxCell>
        <mxCell id="iYJabnQW1kh0cn7j27ZC-11" value="" style="shape=partialRectangle;connectable=0;fillColor=none;top=0;left=0;bottom=0;right=0;editable=1;overflow=hidden;" parent="iYJabnQW1kh0cn7j27ZC-10" vertex="1">
          <mxGeometry width="30" height="30" as="geometry">
            <mxRectangle width="30" height="30" as="alternateBounds" />
          </mxGeometry>
        </mxCell>
        <mxCell id="iYJabnQW1kh0cn7j27ZC-12" value="groupCountMembers:number" style="shape=partialRectangle;connectable=0;fillColor=none;top=0;left=0;bottom=0;right=0;align=left;spacingLeft=6;overflow=hidden;" parent="iYJabnQW1kh0cn7j27ZC-10" vertex="1">
          <mxGeometry x="30" width="220" height="30" as="geometry">
            <mxRectangle width="220" height="30" as="alternateBounds" />
          </mxGeometry>
        </mxCell>
        <mxCell id="gBbmx49k8Sgz6PV1SOfS-20" style="edgeStyle=orthogonalEdgeStyle;rounded=0;orthogonalLoop=1;jettySize=auto;html=1;exitX=0.5;exitY=1;exitDx=0;exitDy=0;entryX=0;entryY=0.5;entryDx=0;entryDy=0;" edge="1" parent="2H_ZKY58X9aCm0sqUemA-1" source="iYJabnQW1kh0cn7j27ZC-13" target="iYJabnQW1kh0cn7j27ZC-59">
          <mxGeometry relative="1" as="geometry" />
        </mxCell>
        <mxCell id="iYJabnQW1kh0cn7j27ZC-13" value="Elementos" style="shape=table;startSize=30;container=1;collapsible=1;childLayout=tableLayout;fixedRows=1;rowLines=0;fontStyle=1;align=center;resizeLast=1;" parent="2H_ZKY58X9aCm0sqUemA-1" vertex="1">
          <mxGeometry x="10" y="-288" width="260" height="190" as="geometry" />
        </mxCell>
        <mxCell id="iYJabnQW1kh0cn7j27ZC-14" value="" style="shape=partialRectangle;collapsible=0;dropTarget=0;pointerEvents=0;fillColor=none;top=0;left=0;bottom=1;right=0;points=[[0,0.5],[1,0.5]];portConstraint=eastwest;" parent="iYJabnQW1kh0cn7j27ZC-13" vertex="1">
          <mxGeometry y="30" width="260" height="30" as="geometry" />
        </mxCell>
        <mxCell id="iYJabnQW1kh0cn7j27ZC-15" value="PK" style="shape=partialRectangle;connectable=0;fillColor=none;top=0;left=0;bottom=0;right=0;fontStyle=1;overflow=hidden;" parent="iYJabnQW1kh0cn7j27ZC-14" vertex="1">
          <mxGeometry width="30" height="30" as="geometry">
            <mxRectangle width="30" height="30" as="alternateBounds" />
          </mxGeometry>
        </mxCell>
        <mxCell id="iYJabnQW1kh0cn7j27ZC-16" value="plataformID:string" style="shape=partialRectangle;connectable=0;fillColor=none;top=0;left=0;bottom=0;right=0;align=left;spacingLeft=6;fontStyle=5;overflow=hidden;" parent="iYJabnQW1kh0cn7j27ZC-14" vertex="1">
          <mxGeometry x="30" width="230" height="30" as="geometry">
            <mxRectangle width="230" height="30" as="alternateBounds" />
          </mxGeometry>
        </mxCell>
        <mxCell id="iYJabnQW1kh0cn7j27ZC-17" value="" style="shape=partialRectangle;collapsible=0;dropTarget=0;pointerEvents=0;fillColor=none;top=0;left=0;bottom=0;right=0;points=[[0,0.5],[1,0.5]];portConstraint=eastwest;" parent="iYJabnQW1kh0cn7j27ZC-13" vertex="1">
          <mxGeometry y="60" width="260" height="30" as="geometry" />
        </mxCell>
        <mxCell id="iYJabnQW1kh0cn7j27ZC-18" value="" style="shape=partialRectangle;connectable=0;fillColor=none;top=0;left=0;bottom=0;right=0;editable=1;overflow=hidden;" parent="iYJabnQW1kh0cn7j27ZC-17" vertex="1">
          <mxGeometry width="30" height="30" as="geometry">
            <mxRectangle width="30" height="30" as="alternateBounds" />
          </mxGeometry>
        </mxCell>
        <mxCell id="iYJabnQW1kh0cn7j27ZC-19" value="elementType: string" style="shape=partialRectangle;connectable=0;fillColor=none;top=0;left=0;bottom=0;right=0;align=left;spacingLeft=6;overflow=hidden;" parent="iYJabnQW1kh0cn7j27ZC-17" vertex="1">
          <mxGeometry x="30" width="230" height="30" as="geometry">
            <mxRectangle width="230" height="30" as="alternateBounds" />
          </mxGeometry>
        </mxCell>
        <mxCell id="iYJabnQW1kh0cn7j27ZC-20" value="" style="shape=partialRectangle;collapsible=0;dropTarget=0;pointerEvents=0;fillColor=none;top=0;left=0;bottom=0;right=0;points=[[0,0.5],[1,0.5]];portConstraint=eastwest;" parent="iYJabnQW1kh0cn7j27ZC-13" vertex="1">
          <mxGeometry y="90" width="260" height="30" as="geometry" />
        </mxCell>
        <mxCell id="iYJabnQW1kh0cn7j27ZC-21" value="" style="shape=partialRectangle;connectable=0;fillColor=none;top=0;left=0;bottom=0;right=0;editable=1;overflow=hidden;" parent="iYJabnQW1kh0cn7j27ZC-20" vertex="1">
          <mxGeometry width="30" height="30" as="geometry">
            <mxRectangle width="30" height="30" as="alternateBounds" />
          </mxGeometry>
        </mxCell>
        <mxCell id="iYJabnQW1kh0cn7j27ZC-22" value="plataformName:string" style="shape=partialRectangle;connectable=0;fillColor=none;top=0;left=0;bottom=0;right=0;align=left;spacingLeft=6;overflow=hidden;" parent="iYJabnQW1kh0cn7j27ZC-20" vertex="1">
          <mxGeometry x="30" width="230" height="30" as="geometry">
            <mxRectangle width="230" height="30" as="alternateBounds" />
          </mxGeometry>
        </mxCell>
        <mxCell id="iYJabnQW1kh0cn7j27ZC-23" value="" style="shape=partialRectangle;collapsible=0;dropTarget=0;pointerEvents=0;fillColor=none;top=0;left=0;bottom=0;right=0;points=[[0,0.5],[1,0.5]];portConstraint=eastwest;" parent="iYJabnQW1kh0cn7j27ZC-13" vertex="1">
          <mxGeometry y="120" width="260" height="30" as="geometry" />
        </mxCell>
        <mxCell id="iYJabnQW1kh0cn7j27ZC-24" value="" style="shape=partialRectangle;connectable=0;fillColor=none;top=0;left=0;bottom=0;right=0;editable=1;overflow=hidden;" parent="iYJabnQW1kh0cn7j27ZC-23" vertex="1">
          <mxGeometry width="30" height="30" as="geometry">
            <mxRectangle width="30" height="30" as="alternateBounds" />
          </mxGeometry>
        </mxCell>
        <mxCell id="iYJabnQW1kh0cn7j27ZC-25" value="moduleMAC:string" style="shape=partialRectangle;connectable=0;fillColor=none;top=0;left=0;bottom=0;right=0;align=left;spacingLeft=6;overflow=hidden;" parent="iYJabnQW1kh0cn7j27ZC-23" vertex="1">
          <mxGeometry x="30" width="230" height="30" as="geometry">
            <mxRectangle width="230" height="30" as="alternateBounds" />
          </mxGeometry>
        </mxCell>
        <mxCell id="gBbmx49k8Sgz6PV1SOfS-12" style="edgeStyle=orthogonalEdgeStyle;rounded=0;orthogonalLoop=1;jettySize=auto;html=1;exitX=0.5;exitY=1;exitDx=0;exitDy=0;" edge="1" parent="2H_ZKY58X9aCm0sqUemA-1" source="iYJabnQW1kh0cn7j27ZC-26" target="iYJabnQW1kh0cn7j27ZC-56">
          <mxGeometry relative="1" as="geometry" />
        </mxCell>
        <mxCell id="iYJabnQW1kh0cn7j27ZC-26" value="Eventos" style="shape=table;startSize=30;container=1;collapsible=1;childLayout=tableLayout;fixedRows=1;rowLines=0;fontStyle=1;align=center;resizeLast=1;movable=1;resizable=1;rotatable=1;deletable=1;editable=1;connectable=1;" parent="2H_ZKY58X9aCm0sqUemA-1" vertex="1">
          <mxGeometry x="570" y="-530" width="320" height="270" as="geometry" />
        </mxCell>
        <mxCell id="iYJabnQW1kh0cn7j27ZC-27" value="" style="shape=partialRectangle;collapsible=0;dropTarget=0;pointerEvents=0;fillColor=none;top=0;left=0;bottom=1;right=0;points=[[0,0.5],[1,0.5]];portConstraint=eastwest;movable=1;resizable=1;rotatable=1;deletable=1;editable=1;connectable=1;" parent="iYJabnQW1kh0cn7j27ZC-26" vertex="1">
          <mxGeometry y="30" width="320" height="30" as="geometry" />
        </mxCell>
        <mxCell id="iYJabnQW1kh0cn7j27ZC-28" value="PK" style="shape=partialRectangle;connectable=1;fillColor=none;top=0;left=0;bottom=0;right=0;fontStyle=1;overflow=hidden;movable=1;resizable=1;rotatable=1;deletable=1;editable=1;" parent="iYJabnQW1kh0cn7j27ZC-27" vertex="1">
          <mxGeometry width="30" height="30" as="geometry">
            <mxRectangle width="30" height="30" as="alternateBounds" />
          </mxGeometry>
        </mxCell>
        <mxCell id="iYJabnQW1kh0cn7j27ZC-29" value="eventoID:string" style="shape=partialRectangle;connectable=1;fillColor=none;top=0;left=0;bottom=0;right=0;align=left;spacingLeft=6;fontStyle=5;overflow=hidden;movable=1;resizable=1;rotatable=1;deletable=1;editable=1;" parent="iYJabnQW1kh0cn7j27ZC-27" vertex="1">
          <mxGeometry x="30" width="290" height="30" as="geometry">
            <mxRectangle width="290" height="30" as="alternateBounds" />
          </mxGeometry>
        </mxCell>
        <mxCell id="iYJabnQW1kh0cn7j27ZC-30" value="" style="shape=partialRectangle;collapsible=0;dropTarget=0;pointerEvents=0;fillColor=none;top=0;left=0;bottom=0;right=0;points=[[0,0.5],[1,0.5]];portConstraint=eastwest;movable=1;resizable=1;rotatable=1;deletable=1;editable=1;connectable=1;" parent="iYJabnQW1kh0cn7j27ZC-26" vertex="1">
          <mxGeometry y="60" width="320" height="30" as="geometry" />
        </mxCell>
        <mxCell id="iYJabnQW1kh0cn7j27ZC-31" value="" style="shape=partialRectangle;connectable=1;fillColor=none;top=0;left=0;bottom=0;right=0;editable=1;overflow=hidden;movable=1;resizable=1;rotatable=1;deletable=1;" parent="iYJabnQW1kh0cn7j27ZC-30" vertex="1">
          <mxGeometry width="30" height="30" as="geometry">
            <mxRectangle width="30" height="30" as="alternateBounds" />
          </mxGeometry>
        </mxCell>
        <mxCell id="iYJabnQW1kh0cn7j27ZC-32" value="objectEvent:" style="shape=partialRectangle;connectable=1;fillColor=none;top=0;left=0;bottom=0;right=0;align=left;spacingLeft=6;overflow=hidden;movable=1;resizable=1;rotatable=1;deletable=1;editable=1;" parent="iYJabnQW1kh0cn7j27ZC-30" vertex="1">
          <mxGeometry x="30" width="290" height="30" as="geometry">
            <mxRectangle width="290" height="30" as="alternateBounds" />
          </mxGeometry>
        </mxCell>
        <mxCell id="iYJabnQW1kh0cn7j27ZC-33" value="" style="shape=partialRectangle;collapsible=0;dropTarget=0;pointerEvents=0;fillColor=none;top=0;left=0;bottom=0;right=0;points=[[0,0.5],[1,0.5]];portConstraint=eastwest;movable=1;resizable=1;rotatable=1;deletable=1;editable=1;connectable=1;" parent="iYJabnQW1kh0cn7j27ZC-26" vertex="1">
          <mxGeometry y="90" width="320" height="30" as="geometry" />
        </mxCell>
        <mxCell id="iYJabnQW1kh0cn7j27ZC-34" value="" style="shape=partialRectangle;connectable=1;fillColor=none;top=0;left=0;bottom=0;right=0;editable=1;overflow=hidden;movable=1;resizable=1;rotatable=1;deletable=1;" parent="iYJabnQW1kh0cn7j27ZC-33" vertex="1">
          <mxGeometry width="30" height="30" as="geometry">
            <mxRectangle width="30" height="30" as="alternateBounds" />
          </mxGeometry>
        </mxCell>
        <mxCell id="iYJabnQW1kh0cn7j27ZC-35" value="dateStart: date" style="shape=partialRectangle;connectable=1;fillColor=none;top=0;left=0;bottom=0;right=0;align=left;spacingLeft=6;overflow=hidden;movable=1;resizable=1;rotatable=1;deletable=1;editable=1;" parent="iYJabnQW1kh0cn7j27ZC-33" vertex="1">
          <mxGeometry x="30" width="290" height="30" as="geometry">
            <mxRectangle width="290" height="30" as="alternateBounds" />
          </mxGeometry>
        </mxCell>
        <mxCell id="iYJabnQW1kh0cn7j27ZC-36" value="" style="shape=partialRectangle;collapsible=0;dropTarget=0;pointerEvents=0;fillColor=none;top=0;left=0;bottom=0;right=0;points=[[0,0.5],[1,0.5]];portConstraint=eastwest;movable=1;resizable=1;rotatable=1;deletable=1;editable=1;connectable=1;" parent="iYJabnQW1kh0cn7j27ZC-26" vertex="1">
          <mxGeometry y="120" width="320" height="30" as="geometry" />
        </mxCell>
        <mxCell id="iYJabnQW1kh0cn7j27ZC-37" value="" style="shape=partialRectangle;connectable=1;fillColor=none;top=0;left=0;bottom=0;right=0;editable=1;overflow=hidden;movable=1;resizable=1;rotatable=1;deletable=1;" parent="iYJabnQW1kh0cn7j27ZC-36" vertex="1">
          <mxGeometry width="30" height="30" as="geometry">
            <mxRectangle width="30" height="30" as="alternateBounds" />
          </mxGeometry>
        </mxCell>
        <mxCell id="iYJabnQW1kh0cn7j27ZC-38" value="dateEnd: date" style="shape=partialRectangle;connectable=1;fillColor=none;top=0;left=0;bottom=0;right=0;align=left;spacingLeft=6;overflow=hidden;movable=1;resizable=1;rotatable=1;deletable=1;editable=1;" parent="iYJabnQW1kh0cn7j27ZC-36" vertex="1">
          <mxGeometry x="30" width="290" height="30" as="geometry">
            <mxRectangle width="290" height="30" as="alternateBounds" />
          </mxGeometry>
        </mxCell>
        <mxCell id="iYJabnQW1kh0cn7j27ZC-39" value="timeStart: date" style="shape=partialRectangle;connectable=1;fillColor=none;top=0;left=0;bottom=0;right=0;align=left;spacingLeft=6;overflow=hidden;movable=1;resizable=1;rotatable=1;deletable=1;editable=1;" parent="2H_ZKY58X9aCm0sqUemA-1" vertex="1">
          <mxGeometry x="600" y="-380" width="230" height="30" as="geometry">
            <mxRectangle width="230" height="30" as="alternateBounds" />
          </mxGeometry>
        </mxCell>
        <mxCell id="iYJabnQW1kh0cn7j27ZC-41" value="timeEnd: date" style="shape=partialRectangle;connectable=1;fillColor=none;top=0;left=0;bottom=0;right=0;align=left;spacingLeft=6;overflow=hidden;movable=1;resizable=1;rotatable=1;deletable=1;editable=1;" parent="2H_ZKY58X9aCm0sqUemA-1" vertex="1">
          <mxGeometry x="600" y="-348" width="230" height="30" as="geometry">
            <mxRectangle width="230" height="30" as="alternateBounds" />
          </mxGeometry>
        </mxCell>
        <mxCell id="iYJabnQW1kh0cn7j27ZC-42" value="eventState: number" style="shape=partialRectangle;connectable=1;fillColor=none;top=0;left=0;bottom=0;right=0;align=left;spacingLeft=6;overflow=hidden;movable=1;resizable=1;rotatable=1;deletable=1;editable=1;" parent="2H_ZKY58X9aCm0sqUemA-1" vertex="1">
          <mxGeometry x="600" y="-318" width="230" height="30" as="geometry">
            <mxRectangle width="230" height="30" as="alternateBounds" />
          </mxGeometry>
        </mxCell>
        <mxCell id="iYJabnQW1kh0cn7j27ZC-43" value="Users" style="shape=table;startSize=30;container=1;collapsible=1;childLayout=tableLayout;fixedRows=1;rowLines=0;fontStyle=1;align=center;resizeLast=1;" parent="2H_ZKY58X9aCm0sqUemA-1" vertex="1">
          <mxGeometry x="780" y="-770" width="180" height="160" as="geometry" />
        </mxCell>
        <mxCell id="iYJabnQW1kh0cn7j27ZC-44" value="" style="shape=partialRectangle;collapsible=0;dropTarget=0;pointerEvents=0;fillColor=none;top=0;left=0;bottom=1;right=0;points=[[0,0.5],[1,0.5]];portConstraint=eastwest;" parent="iYJabnQW1kh0cn7j27ZC-43" vertex="1">
          <mxGeometry y="30" width="180" height="30" as="geometry" />
        </mxCell>
        <mxCell id="iYJabnQW1kh0cn7j27ZC-45" value="PK" style="shape=partialRectangle;connectable=0;fillColor=none;top=0;left=0;bottom=0;right=0;fontStyle=1;overflow=hidden;" parent="iYJabnQW1kh0cn7j27ZC-44" vertex="1">
          <mxGeometry width="30" height="30" as="geometry">
            <mxRectangle width="30" height="30" as="alternateBounds" />
          </mxGeometry>
        </mxCell>
        <mxCell id="iYJabnQW1kh0cn7j27ZC-46" value="usersID" style="shape=partialRectangle;connectable=0;fillColor=none;top=0;left=0;bottom=0;right=0;align=left;spacingLeft=6;fontStyle=5;overflow=hidden;" parent="iYJabnQW1kh0cn7j27ZC-44" vertex="1">
          <mxGeometry x="30" width="150" height="30" as="geometry">
            <mxRectangle width="150" height="30" as="alternateBounds" />
          </mxGeometry>
        </mxCell>
        <mxCell id="iYJabnQW1kh0cn7j27ZC-47" value="" style="shape=partialRectangle;collapsible=0;dropTarget=0;pointerEvents=0;fillColor=none;top=0;left=0;bottom=0;right=0;points=[[0,0.5],[1,0.5]];portConstraint=eastwest;" parent="iYJabnQW1kh0cn7j27ZC-43" vertex="1">
          <mxGeometry y="60" width="180" height="30" as="geometry" />
        </mxCell>
        <mxCell id="iYJabnQW1kh0cn7j27ZC-48" value="" style="shape=partialRectangle;connectable=0;fillColor=none;top=0;left=0;bottom=0;right=0;editable=1;overflow=hidden;" parent="iYJabnQW1kh0cn7j27ZC-47" vertex="1">
          <mxGeometry width="30" height="30" as="geometry">
            <mxRectangle width="30" height="30" as="alternateBounds" />
          </mxGeometry>
        </mxCell>
        <mxCell id="iYJabnQW1kh0cn7j27ZC-49" value="userLogin:string" style="shape=partialRectangle;connectable=0;fillColor=none;top=0;left=0;bottom=0;right=0;align=left;spacingLeft=6;overflow=hidden;" parent="iYJabnQW1kh0cn7j27ZC-47" vertex="1">
          <mxGeometry x="30" width="150" height="30" as="geometry">
            <mxRectangle width="150" height="30" as="alternateBounds" />
          </mxGeometry>
        </mxCell>
        <mxCell id="iYJabnQW1kh0cn7j27ZC-50" value="" style="shape=partialRectangle;collapsible=0;dropTarget=0;pointerEvents=0;fillColor=none;top=0;left=0;bottom=0;right=0;points=[[0,0.5],[1,0.5]];portConstraint=eastwest;" parent="iYJabnQW1kh0cn7j27ZC-43" vertex="1">
          <mxGeometry y="90" width="180" height="30" as="geometry" />
        </mxCell>
        <mxCell id="iYJabnQW1kh0cn7j27ZC-51" value="" style="shape=partialRectangle;connectable=0;fillColor=none;top=0;left=0;bottom=0;right=0;editable=1;overflow=hidden;" parent="iYJabnQW1kh0cn7j27ZC-50" vertex="1">
          <mxGeometry width="30" height="30" as="geometry">
            <mxRectangle width="30" height="30" as="alternateBounds" />
          </mxGeometry>
        </mxCell>
        <mxCell id="iYJabnQW1kh0cn7j27ZC-52" value="userPasswd:string" style="shape=partialRectangle;connectable=0;fillColor=none;top=0;left=0;bottom=0;right=0;align=left;spacingLeft=6;overflow=hidden;" parent="iYJabnQW1kh0cn7j27ZC-50" vertex="1">
          <mxGeometry x="30" width="150" height="30" as="geometry">
            <mxRectangle width="150" height="30" as="alternateBounds" />
          </mxGeometry>
        </mxCell>
        <mxCell id="iYJabnQW1kh0cn7j27ZC-53" value="" style="shape=partialRectangle;collapsible=0;dropTarget=0;pointerEvents=0;fillColor=none;top=0;left=0;bottom=0;right=0;points=[[0,0.5],[1,0.5]];portConstraint=eastwest;" parent="iYJabnQW1kh0cn7j27ZC-43" vertex="1">
          <mxGeometry y="120" width="180" height="30" as="geometry" />
        </mxCell>
        <mxCell id="iYJabnQW1kh0cn7j27ZC-54" value="" style="shape=partialRectangle;connectable=0;fillColor=none;top=0;left=0;bottom=0;right=0;editable=1;overflow=hidden;" parent="iYJabnQW1kh0cn7j27ZC-53" vertex="1">
          <mxGeometry width="30" height="30" as="geometry">
            <mxRectangle width="30" height="30" as="alternateBounds" />
          </mxGeometry>
        </mxCell>
        <mxCell id="iYJabnQW1kh0cn7j27ZC-55" value="" style="shape=partialRectangle;connectable=0;fillColor=none;top=0;left=0;bottom=0;right=0;align=left;spacingLeft=6;overflow=hidden;" parent="iYJabnQW1kh0cn7j27ZC-53" vertex="1">
          <mxGeometry x="30" width="150" height="30" as="geometry">
            <mxRectangle width="150" height="30" as="alternateBounds" />
          </mxGeometry>
        </mxCell>
        <mxCell id="iYJabnQW1kh0cn7j27ZC-56" value="Log" style="swimlane;fontStyle=0;childLayout=stackLayout;horizontal=1;startSize=26;horizontalStack=0;resizeParent=1;resizeParentMax=0;resizeLast=0;collapsible=1;marginBottom=0;align=center;fontSize=14;" parent="2H_ZKY58X9aCm0sqUemA-1" vertex="1">
          <mxGeometry x="850" y="-170" width="160" height="116" as="geometry" />
        </mxCell>
        <mxCell id="iYJabnQW1kh0cn7j27ZC-57" value="Item 1" style="text;strokeColor=none;fillColor=none;spacingLeft=4;spacingRight=4;overflow=hidden;rotatable=0;points=[[0,0.5],[1,0.5]];portConstraint=eastwest;fontSize=12;" parent="iYJabnQW1kh0cn7j27ZC-56" vertex="1">
          <mxGeometry y="26" width="160" height="30" as="geometry" />
        </mxCell>
        <mxCell id="iYJabnQW1kh0cn7j27ZC-58" value="Item 2" style="text;strokeColor=none;fillColor=none;spacingLeft=4;spacingRight=4;overflow=hidden;rotatable=0;points=[[0,0.5],[1,0.5]];portConstraint=eastwest;fontSize=12;" parent="iYJabnQW1kh0cn7j27ZC-56" vertex="1">
          <mxGeometry y="56" width="160" height="30" as="geometry" />
        </mxCell>
        <mxCell id="iYJabnQW1kh0cn7j27ZC-59" value="Item 3" style="text;strokeColor=none;fillColor=none;spacingLeft=4;spacingRight=4;overflow=hidden;rotatable=0;points=[[0,0.5],[1,0.5]];portConstraint=eastwest;fontSize=12;" parent="iYJabnQW1kh0cn7j27ZC-56" vertex="1">
          <mxGeometry y="86" width="160" height="30" as="geometry" />
        </mxCell>
        <mxCell id="gBbmx49k8Sgz6PV1SOfS-0" value="groupMember:string" style="shape=partialRectangle;connectable=0;fillColor=none;top=0;left=0;bottom=0;right=0;align=left;spacingLeft=6;overflow=hidden;" vertex="1" parent="2H_ZKY58X9aCm0sqUemA-1">
          <mxGeometry x="180" y="-747" width="210" height="30" as="geometry">
            <mxRectangle width="210" height="30" as="alternateBounds" />
          </mxGeometry>
        </mxCell>
        <mxCell id="gBbmx49k8Sgz6PV1SOfS-6" value="" style="edgeStyle=entityRelationEdgeStyle;fontSize=12;html=1;endArrow=ERoneToMany;rounded=0;entryX=0;entryY=-0.033;entryDx=0;entryDy=0;entryPerimeter=0;exitX=1;exitY=0.5;exitDx=0;exitDy=0;" edge="1" parent="2H_ZKY58X9aCm0sqUemA-1" source="iYJabnQW1kh0cn7j27ZC-1" target="iYJabnQW1kh0cn7j27ZC-50">
          <mxGeometry width="100" height="100" relative="1" as="geometry">
            <mxPoint x="200" y="-600" as="sourcePoint" />
            <mxPoint x="600" y="-490" as="targetPoint" />
          </mxGeometry>
        </mxCell>
        <mxCell id="gBbmx49k8Sgz6PV1SOfS-18" value="" style="edgeStyle=entityRelationEdgeStyle;fontSize=12;html=1;endArrow=ERoneToMany;rounded=0;exitX=0.75;exitY=1;exitDx=0;exitDy=0;entryX=1;entryY=0.5;entryDx=0;entryDy=0;" edge="1" parent="2H_ZKY58X9aCm0sqUemA-1" source="iYJabnQW1kh0cn7j27ZC-0" target="iYJabnQW1kh0cn7j27ZC-17">
          <mxGeometry width="100" height="100" relative="1" as="geometry">
            <mxPoint x="500" y="-390" as="sourcePoint" />
            <mxPoint x="600" y="-490" as="targetPoint" />
          </mxGeometry>
        </mxCell>
        <mxCell id="gBbmx49k8Sgz6PV1SOfS-22" value="" style="edgeStyle=entityRelationEdgeStyle;fontSize=12;html=1;endArrow=ERmandOne;startArrow=ERmandOne;rounded=0;exitX=0.25;exitY=0;exitDx=0;exitDy=0;" edge="1" parent="2H_ZKY58X9aCm0sqUemA-1" source="iYJabnQW1kh0cn7j27ZC-26" target="iYJabnQW1kh0cn7j27ZC-53">
          <mxGeometry width="100" height="100" relative="1" as="geometry">
            <mxPoint x="920" y="-460" as="sourcePoint" />
            <mxPoint x="600" y="-480" as="targetPoint" />
          </mxGeometry>
        </mxCell>
        <mxCell id="gBbmx49k8Sgz6PV1SOfS-23" value="" style="edgeStyle=entityRelationEdgeStyle;fontSize=12;html=1;endArrow=ERzeroToOne;startArrow=ERmandOne;rounded=0;exitX=1;exitY=0.5;exitDx=0;exitDy=0;entryX=0;entryY=0.75;entryDx=0;entryDy=0;" edge="1" parent="2H_ZKY58X9aCm0sqUemA-1" source="iYJabnQW1kh0cn7j27ZC-10" target="iYJabnQW1kh0cn7j27ZC-31">
          <mxGeometry width="100" height="100" relative="1" as="geometry">
            <mxPoint x="500" y="-380" as="sourcePoint" />
            <mxPoint x="500" y="-450" as="targetPoint" />
          </mxGeometry>
        </mxCell>
        <mxCell id="gBbmx49k8Sgz6PV1SOfS-27" style="edgeStyle=orthogonalEdgeStyle;rounded=0;orthogonalLoop=1;jettySize=auto;html=1;exitX=1.004;exitY=0.095;exitDx=0;exitDy=0;exitPerimeter=0;entryX=0.75;entryY=0;entryDx=0;entryDy=0;" edge="1" parent="2H_ZKY58X9aCm0sqUemA-1" source="iYJabnQW1kh0cn7j27ZC-0" target="iYJabnQW1kh0cn7j27ZC-56">
          <mxGeometry relative="1" as="geometry">
            <mxPoint x="150" y="-88" as="sourcePoint" />
            <mxPoint x="860" y="-59" as="targetPoint" />
          </mxGeometry>
        </mxCell>
        <mxCell id="gBbmx49k8Sgz6PV1SOfS-28" style="edgeStyle=orthogonalEdgeStyle;rounded=0;orthogonalLoop=1;jettySize=auto;html=1;exitX=0.75;exitY=1;exitDx=0;exitDy=0;" edge="1" parent="2H_ZKY58X9aCm0sqUemA-1" source="iYJabnQW1kh0cn7j27ZC-43" target="iYJabnQW1kh0cn7j27ZC-56">
          <mxGeometry relative="1" as="geometry">
            <mxPoint x="930" y="-580" as="sourcePoint" />
            <mxPoint x="980" y="-160" as="targetPoint" />
          </mxGeometry>
        </mxCell>
      </root>
    </mxGraphModel>
  </diagram>
  <diagram id="6-XJ-OarZyxuyhE02tvs" name="Servidor">
    <mxGraphModel dx="1422" dy="795" grid="1" gridSize="10" guides="1" tooltips="1" connect="1" arrows="1" fold="1" page="1" pageScale="1" pageWidth="1100" pageHeight="850" math="0" shadow="0">
      <root>
        <mxCell id="PrDCxp2uVufEPcPrWEyi-0" />
        <mxCell id="PrDCxp2uVufEPcPrWEyi-1" parent="PrDCxp2uVufEPcPrWEyi-0" />
        <mxCell id="PrDCxp2uVufEPcPrWEyi-2" value="SERVIDOR&#xa;16 GB. 1T, 4 LAN&#xa;Centos Stream" style="ellipse" parent="PrDCxp2uVufEPcPrWEyi-1" vertex="1">
          <mxGeometry x="460" y="130" width="110" height="60" as="geometry" />
        </mxCell>
        <mxCell id="PrDCxp2uVufEPcPrWEyi-3" value="MV01" style="rounded=1;" parent="PrDCxp2uVufEPcPrWEyi-1" vertex="1">
          <mxGeometry x="355" y="240" width="80" height="30" as="geometry" />
        </mxCell>
        <mxCell id="PrDCxp2uVufEPcPrWEyi-4" value="" style="edgeStyle=elbowEdgeStyle;elbow=vertical;" parent="PrDCxp2uVufEPcPrWEyi-1" source="PrDCxp2uVufEPcPrWEyi-2" target="PrDCxp2uVufEPcPrWEyi-3" edge="1">
          <mxGeometry relative="1" as="geometry" />
        </mxCell>
        <mxCell id="PrDCxp2uVufEPcPrWEyi-5" value="nagios" style="rounded=1;" parent="PrDCxp2uVufEPcPrWEyi-1" vertex="1">
          <mxGeometry x="355" y="320" width="80" height="30" as="geometry" />
        </mxCell>
        <mxCell id="PrDCxp2uVufEPcPrWEyi-6" value="" style="edgeStyle=elbowEdgeStyle;elbow=vertical;" parent="PrDCxp2uVufEPcPrWEyi-1" source="PrDCxp2uVufEPcPrWEyi-3" target="PrDCxp2uVufEPcPrWEyi-5" edge="1">
          <mxGeometry relative="1" as="geometry" />
        </mxCell>
        <mxCell id="PrDCxp2uVufEPcPrWEyi-7" value="MV02" style="rounded=1;" parent="PrDCxp2uVufEPcPrWEyi-1" vertex="1">
          <mxGeometry x="475" y="240" width="80" height="30" as="geometry" />
        </mxCell>
        <mxCell id="PrDCxp2uVufEPcPrWEyi-8" value="" style="edgeStyle=elbowEdgeStyle;elbow=vertical;" parent="PrDCxp2uVufEPcPrWEyi-1" source="PrDCxp2uVufEPcPrWEyi-2" target="PrDCxp2uVufEPcPrWEyi-7" edge="1">
          <mxGeometry relative="1" as="geometry" />
        </mxCell>
        <mxCell id="PrDCxp2uVufEPcPrWEyi-9" value="mongo db" style="rounded=1;" parent="PrDCxp2uVufEPcPrWEyi-1" vertex="1">
          <mxGeometry x="475" y="320" width="80" height="30" as="geometry" />
        </mxCell>
        <mxCell id="PrDCxp2uVufEPcPrWEyi-10" value="" style="edgeStyle=elbowEdgeStyle;elbow=vertical;" parent="PrDCxp2uVufEPcPrWEyi-1" source="PrDCxp2uVufEPcPrWEyi-7" target="PrDCxp2uVufEPcPrWEyi-9" edge="1">
          <mxGeometry relative="1" as="geometry" />
        </mxCell>
        <mxCell id="PrDCxp2uVufEPcPrWEyi-11" value="MV03" style="rounded=1;" parent="PrDCxp2uVufEPcPrWEyi-1" vertex="1">
          <mxGeometry x="595" y="240" width="80" height="30" as="geometry" />
        </mxCell>
        <mxCell id="PrDCxp2uVufEPcPrWEyi-12" value="" style="edgeStyle=elbowEdgeStyle;elbow=vertical;" parent="PrDCxp2uVufEPcPrWEyi-1" source="PrDCxp2uVufEPcPrWEyi-2" target="PrDCxp2uVufEPcPrWEyi-11" edge="1">
          <mxGeometry relative="1" as="geometry" />
        </mxCell>
        <mxCell id="PrDCxp2uVufEPcPrWEyi-13" value="apache&#xa;node.js" style="rounded=1;" parent="PrDCxp2uVufEPcPrWEyi-1" vertex="1">
          <mxGeometry x="595" y="320" width="80" height="30" as="geometry" />
        </mxCell>
        <mxCell id="PrDCxp2uVufEPcPrWEyi-14" value="" style="edgeStyle=elbowEdgeStyle;elbow=vertical;" parent="PrDCxp2uVufEPcPrWEyi-1" source="PrDCxp2uVufEPcPrWEyi-11" target="PrDCxp2uVufEPcPrWEyi-13" edge="1">
          <mxGeometry relative="1" as="geometry" />
        </mxCell>
      </root>
    </mxGraphModel>
  </diagram>
  <diagram id="2ppPDXJrP_5WPOUc_W4h" name="claseArduino">
    <mxGraphModel dx="1422" dy="795" grid="1" gridSize="10" guides="1" tooltips="1" connect="1" arrows="1" fold="1" page="1" pageScale="1" pageWidth="1100" pageHeight="850" math="0" shadow="0">
      <root>
        <mxCell id="Ocx3cPU0YFXCbf2FQ7B5-0" />
        <mxCell id="Ocx3cPU0YFXCbf2FQ7B5-1" parent="Ocx3cPU0YFXCbf2FQ7B5-0" />
        <mxCell id="Ocx3cPU0YFXCbf2FQ7B5-2" value="&lt;p style=&quot;margin: 0px ; margin-top: 4px ; text-align: center&quot;&gt;&lt;b&gt;Arduino&lt;/b&gt;&lt;/p&gt;&lt;hr size=&quot;1&quot;&gt;&lt;p style=&quot;margin: 0px ; margin-left: 4px&quot;&gt;+ state: boolean&lt;/p&gt;&lt;p style=&quot;margin: 0px ; margin-left: 4px&quot;&gt;+ mac: string&lt;/p&gt;&lt;p style=&quot;margin: 0px ; margin-left: 4px&quot;&gt;+ action: boolean&lt;/p&gt;&lt;hr size=&quot;1&quot;&gt;&lt;p style=&quot;margin: 0px ; margin-left: 4px&quot;&gt;+ openDoor(): boolean&lt;/p&gt;&lt;p style=&quot;margin: 0px ; margin-left: 4px&quot;&gt;+ closeDoor(): boolean&lt;/p&gt;&lt;p style=&quot;margin: 0px ; margin-left: 4px&quot;&gt;+ readState(): boolean&lt;/p&gt;&lt;p style=&quot;margin: 0px ; margin-left: 4px&quot;&gt;+ setServer(mac): null&lt;/p&gt;&lt;p style=&quot;margin: 0px ; margin-left: 4px&quot;&gt;+ getAction(mac): boolean&lt;/p&gt;&lt;p style=&quot;margin: 0px ; margin-left: 4px&quot;&gt;+ postState(mac): null&lt;/p&gt;&lt;p style=&quot;margin: 0px ; margin-left: 4px&quot;&gt;&lt;br&gt;&lt;/p&gt;" style="verticalAlign=top;align=left;overflow=fill;fontSize=12;fontFamily=Helvetica;html=1;" parent="Ocx3cPU0YFXCbf2FQ7B5-1" vertex="1">
          <mxGeometry x="150" y="70" width="160" height="180" as="geometry" />
        </mxCell>
      </root>
    </mxGraphModel>
  </diagram>
  <diagram id="Jwq8-_tsWqJRScrMjZGS" name="menú">
    <mxGraphModel dx="1422" dy="795" grid="1" gridSize="10" guides="1" tooltips="1" connect="1" arrows="1" fold="1" page="1" pageScale="1" pageWidth="827" pageHeight="1169" math="0" shadow="0">
      <root>
        <mxCell id="2qpFjCN9hRpZ2BIi23Pb-0" />
        <mxCell id="2qpFjCN9hRpZ2BIi23Pb-1" parent="2qpFjCN9hRpZ2BIi23Pb-0" />
        <mxCell id="GWtnAlwvbyHm2x_BTw2--0" value="MENU" style="ellipse" vertex="1" parent="2qpFjCN9hRpZ2BIi23Pb-1">
          <mxGeometry x="320" y="20" width="110" height="60" as="geometry" />
        </mxCell>
        <mxCell id="GWtnAlwvbyHm2x_BTw2--1" value="Consulta&#xa;Estaciones" style="rounded=1;" vertex="1" parent="2qpFjCN9hRpZ2BIi23Pb-1">
          <mxGeometry x="77" y="220" width="80" height="30" as="geometry" />
        </mxCell>
        <mxCell id="GWtnAlwvbyHm2x_BTw2--2" value="" style="edgeStyle=elbowEdgeStyle;elbow=vertical;" edge="1" parent="2qpFjCN9hRpZ2BIi23Pb-1" source="GWtnAlwvbyHm2x_BTw2--0" target="GWtnAlwvbyHm2x_BTw2--1">
          <mxGeometry relative="1" as="geometry" />
        </mxCell>
        <mxCell id="GWtnAlwvbyHm2x_BTw2--3" value="estación&#xa;diagrama estación&#xa;estado plataformas&#xa;eventos para esa estación&#xa;motores asignados" style="rounded=1;" vertex="1" parent="2qpFjCN9hRpZ2BIi23Pb-1">
          <mxGeometry x="40.75" y="300" width="152.5" height="80" as="geometry" />
        </mxCell>
        <mxCell id="GWtnAlwvbyHm2x_BTw2--4" value="" style="edgeStyle=elbowEdgeStyle;elbow=vertical;" edge="1" parent="2qpFjCN9hRpZ2BIi23Pb-1" source="GWtnAlwvbyHm2x_BTw2--1" target="GWtnAlwvbyHm2x_BTw2--3">
          <mxGeometry relative="1" as="geometry" />
        </mxCell>
        <mxCell id="GWtnAlwvbyHm2x_BTw2--5" value="Eventos" style="rounded=1;" vertex="1" parent="2qpFjCN9hRpZ2BIi23Pb-1">
          <mxGeometry x="267" y="220" width="80" height="30" as="geometry" />
        </mxCell>
        <mxCell id="GWtnAlwvbyHm2x_BTw2--6" value="" style="edgeStyle=elbowEdgeStyle;elbow=vertical;" edge="1" parent="2qpFjCN9hRpZ2BIi23Pb-1" source="GWtnAlwvbyHm2x_BTw2--0" target="GWtnAlwvbyHm2x_BTw2--5">
          <mxGeometry relative="1" as="geometry" />
        </mxCell>
        <mxCell id="GWtnAlwvbyHm2x_BTw2--7" value="consulta&#xa;creación&#xa;modificación&#xa;eliminación" style="rounded=1;" vertex="1" parent="2qpFjCN9hRpZ2BIi23Pb-1">
          <mxGeometry x="262" y="300" width="90" height="60" as="geometry" />
        </mxCell>
        <mxCell id="GWtnAlwvbyHm2x_BTw2--8" value="" style="edgeStyle=elbowEdgeStyle;elbow=vertical;" edge="1" parent="2qpFjCN9hRpZ2BIi23Pb-1" source="GWtnAlwvbyHm2x_BTw2--5" target="GWtnAlwvbyHm2x_BTw2--7">
          <mxGeometry relative="1" as="geometry" />
        </mxCell>
        <mxCell id="GWtnAlwvbyHm2x_BTw2--9" value="Configuración" style="rounded=1;" vertex="1" parent="2qpFjCN9hRpZ2BIi23Pb-1">
          <mxGeometry x="417" y="220" width="80" height="30" as="geometry" />
        </mxCell>
        <mxCell id="GWtnAlwvbyHm2x_BTw2--10" value="" style="edgeStyle=elbowEdgeStyle;elbow=vertical;" edge="1" parent="2qpFjCN9hRpZ2BIi23Pb-1" source="GWtnAlwvbyHm2x_BTw2--0" target="GWtnAlwvbyHm2x_BTw2--9">
          <mxGeometry relative="1" as="geometry" />
        </mxCell>
        <mxCell id="GWtnAlwvbyHm2x_BTw2--11" value="usuarios&#xa;estaciones&#xa;motores" style="rounded=1;" vertex="1" parent="2qpFjCN9hRpZ2BIi23Pb-1">
          <mxGeometry x="415.5" y="300" width="83" height="50" as="geometry" />
        </mxCell>
        <mxCell id="GWtnAlwvbyHm2x_BTw2--12" value="" style="edgeStyle=elbowEdgeStyle;elbow=vertical;" edge="1" parent="2qpFjCN9hRpZ2BIi23Pb-1" source="GWtnAlwvbyHm2x_BTw2--9" target="GWtnAlwvbyHm2x_BTw2--11">
          <mxGeometry relative="1" as="geometry" />
        </mxCell>
        <mxCell id="GWtnAlwvbyHm2x_BTw2--13" value="" style="edgeStyle=elbowEdgeStyle;elbow=vertical;exitX=0.5;exitY=1;exitDx=0;exitDy=0;entryX=0.5;entryY=0;entryDx=0;entryDy=0;" edge="1" parent="2qpFjCN9hRpZ2BIi23Pb-1" source="GWtnAlwvbyHm2x_BTw2--0" target="GWtnAlwvbyHm2x_BTw2--14">
          <mxGeometry relative="1" as="geometry">
            <mxPoint x="385" y="90" as="sourcePoint" />
            <mxPoint x="620" y="120" as="targetPoint" />
          </mxGeometry>
        </mxCell>
        <mxCell id="GWtnAlwvbyHm2x_BTw2--14" value="Sesión" style="rounded=1;" vertex="1" parent="2qpFjCN9hRpZ2BIi23Pb-1">
          <mxGeometry x="537" y="220" width="80" height="30" as="geometry" />
        </mxCell>
        <mxCell id="GWtnAlwvbyHm2x_BTw2--15" value="" style="edgeStyle=elbowEdgeStyle;elbow=vertical;exitX=0.5;exitY=1;exitDx=0;exitDy=0;entryX=0.5;entryY=0;entryDx=0;entryDy=0;" edge="1" parent="2qpFjCN9hRpZ2BIi23Pb-1" source="GWtnAlwvbyHm2x_BTw2--14" target="GWtnAlwvbyHm2x_BTw2--16">
          <mxGeometry relative="1" as="geometry">
            <mxPoint x="576.5" y="270" as="sourcePoint" />
            <mxPoint x="576.5" y="330" as="targetPoint" />
          </mxGeometry>
        </mxCell>
        <mxCell id="GWtnAlwvbyHm2x_BTw2--16" value="abrir&#xa;cerrar" style="rounded=1;" vertex="1" parent="2qpFjCN9hRpZ2BIi23Pb-1">
          <mxGeometry x="537" y="300" width="80" height="30" as="geometry" />
        </mxCell>
        <mxCell id="GWtnAlwvbyHm2x_BTw2--18" value="perfiles&#xa;consulta&#xa;operador&#xa;administrador" style="rounded=1;" vertex="1" parent="2qpFjCN9hRpZ2BIi23Pb-1">
          <mxGeometry x="700" y="200" width="110" height="70" as="geometry" />
        </mxCell>
        <mxCell id="GWtnAlwvbyHm2x_BTw2--19" value="" style="elbow=vertical;exitX=1;exitY=0.5;exitDx=0;exitDy=0;dashed=1;endArrow=openAsync;endFill=0;" edge="1" parent="2qpFjCN9hRpZ2BIi23Pb-1" source="GWtnAlwvbyHm2x_BTw2--14" target="GWtnAlwvbyHm2x_BTw2--18">
          <mxGeometry relative="1" as="geometry">
            <mxPoint x="385" y="90" as="sourcePoint" />
            <mxPoint x="640" y="230" as="targetPoint" />
          </mxGeometry>
        </mxCell>
      </root>
    </mxGraphModel>
  </diagram>
</mxfile>
